# xmcd
#
# Track frame offsets:
#	150
#	17530
#	37514
#	54025
#	70355
#	86342
#	102913
#	118925
#	138521
#	152805
#	168435
#	187889
#	207203
#	222969
#	239363
#	258263
#	276290
#	300565
#
# Disc length: 4227 seconds
#
# Revision: 1
# Processed by: cddbd v1.5.2PL0 Copyright (c) Steve Scherf et al.
# Submitted via: audiograbber 1.83.01
#
DISCID=ec108112
DTITLE=Various Artist - Gympie Music Muster 2014 [CD1)
DYEAR=2014
DGENRE=Country
TTITLE0=The Soorleys - Rumble
TTITLE1=Dean Perrett and Troy Cassar-Daley - My Country My Land
TTITLE2=Ashleigh Dallas - Sail Away
TTITLE3=Aleyce Simmonds - Name Without A Face
TTITLE4=Russell Morris - Black Dog Blues
TTITLE5=The Wolfe Brothers - One Way State Of Mind
TTITLE6=John Stone - You and I
TTITLE7=Luella - Yes
TTITLE8=Kaylee Bell - Little Bit Small Town
TTITLE9=Lee Kernaghan - Keeping On
TTITLE10=John Williamson - Island Of Dreams
TTITLE11=Josh Pyke - Warmer In Winter
TTITLE12=Kasey Chambers - Little Bird
TTITLE13=The Sou'Westers - Lovers Do
TTITLE14=Terry Clarke - Old Shoes
TTITLE15=Lachlan Bryan and The Wides ft Melody Pool - Fourty Days and Nights
TTITLE16=Luke O'Shea Ft Aleyce Simmonds  - Truckstop Flowers
TTITLE17=Thgelma Plum - Rosie
EXTD=
EXTT0=
EXTT1=
EXTT2=
EXTT3=
EXTT4=
EXTT5=
EXTT6=
EXTT7=
EXTT8=
EXTT9=
EXTT10=
EXTT11=
EXTT12=
EXTT13=
EXTT14=
EXTT15=
EXTT16=
EXTT17=
PLAYORDER=
